<mxfile host="app.diagrams.net" modified="2023-06-19T02:54:43.798Z" agent="Mozilla/5.0 (Macintosh; Intel Mac OS X 10_15_7) AppleWebKit/605.1.15 (KHTML, like Gecko) Version/16.5 Safari/605.1.15" etag="y41scaAh3s1cfc5il0ND" version="21.5.0" type="github">
  <diagram id="C5RBs43oDa-KdzZeNtuy" name="Page-1">
    <mxGraphModel dx="865" dy="542" grid="1" gridSize="10" guides="1" tooltips="1" connect="1" arrows="1" fold="1" page="1" pageScale="1" pageWidth="827" pageHeight="1169" math="0" shadow="0">
      <root>
        <mxCell id="WIyWlLk6GJQsqaUBKTNV-0" />
        <mxCell id="WIyWlLk6GJQsqaUBKTNV-1" parent="WIyWlLk6GJQsqaUBKTNV-0" />
        <mxCell id="D2uSXx4SEqzR9EKK17rN-6" style="edgeStyle=orthogonalEdgeStyle;rounded=0;orthogonalLoop=1;jettySize=auto;html=1;exitX=0.5;exitY=1;exitDx=0;exitDy=0;entryX=0.5;entryY=0;entryDx=0;entryDy=0;entryPerimeter=0;" edge="1" parent="WIyWlLk6GJQsqaUBKTNV-1" source="D2uSXx4SEqzR9EKK17rN-0" target="D2uSXx4SEqzR9EKK17rN-1">
          <mxGeometry relative="1" as="geometry" />
        </mxCell>
        <mxCell id="D2uSXx4SEqzR9EKK17rN-0" value="&lt;span style=&quot;caret-color: rgb(0, 0, 0); color: rgb(0, 0, 0); font-family: Helvetica; font-size: 12px; font-style: normal; font-variant-caps: normal; font-weight: 400; letter-spacing: normal; text-align: center; text-indent: 0px; text-transform: none; word-spacing: 0px; -webkit-text-stroke-width: 0px; background-color: rgb(251, 251, 251); text-decoration: none; float: none; display: inline !important;&quot;&gt;enter Campus Explorer website&lt;/span&gt;" style="rounded=1;whiteSpace=wrap;html=1;absoluteArcSize=1;arcSize=14;strokeWidth=2;" vertex="1" parent="WIyWlLk6GJQsqaUBKTNV-1">
          <mxGeometry x="160" y="160" width="120" height="40" as="geometry" />
        </mxCell>
        <mxCell id="D2uSXx4SEqzR9EKK17rN-1" value="login as" style="strokeWidth=2;html=1;shape=mxgraph.flowchart.decision;whiteSpace=wrap;" vertex="1" parent="WIyWlLk6GJQsqaUBKTNV-1">
          <mxGeometry x="170" y="250" width="100" height="90" as="geometry" />
        </mxCell>
        <mxCell id="D2uSXx4SEqzR9EKK17rN-10" value="" style="edgeStyle=orthogonalEdgeStyle;rounded=0;orthogonalLoop=1;jettySize=auto;html=1;" edge="1" parent="WIyWlLk6GJQsqaUBKTNV-1" source="D2uSXx4SEqzR9EKK17rN-2" target="D2uSXx4SEqzR9EKK17rN-3">
          <mxGeometry relative="1" as="geometry" />
        </mxCell>
        <mxCell id="D2uSXx4SEqzR9EKK17rN-2" value="enter email address and password" style="rounded=1;whiteSpace=wrap;html=1;absoluteArcSize=1;arcSize=14;strokeWidth=2;" vertex="1" parent="WIyWlLk6GJQsqaUBKTNV-1">
          <mxGeometry x="50" y="340" width="100" height="100" as="geometry" />
        </mxCell>
        <mxCell id="D2uSXx4SEqzR9EKK17rN-14" value="" style="edgeStyle=orthogonalEdgeStyle;rounded=0;orthogonalLoop=1;jettySize=auto;html=1;" edge="1" parent="WIyWlLk6GJQsqaUBKTNV-1" source="D2uSXx4SEqzR9EKK17rN-3" target="D2uSXx4SEqzR9EKK17rN-13">
          <mxGeometry relative="1" as="geometry" />
        </mxCell>
        <mxCell id="D2uSXx4SEqzR9EKK17rN-3" value="account&lt;br&gt;exist?" style="strokeWidth=2;html=1;shape=mxgraph.flowchart.decision;whiteSpace=wrap;" vertex="1" parent="WIyWlLk6GJQsqaUBKTNV-1">
          <mxGeometry x="50" y="480" width="100" height="100" as="geometry" />
        </mxCell>
        <mxCell id="D2uSXx4SEqzR9EKK17rN-9" value="" style="endArrow=classic;html=1;rounded=0;exitX=0;exitY=0.5;exitDx=0;exitDy=0;exitPerimeter=0;entryX=0.5;entryY=0;entryDx=0;entryDy=0;" edge="1" parent="WIyWlLk6GJQsqaUBKTNV-1" source="D2uSXx4SEqzR9EKK17rN-1" target="D2uSXx4SEqzR9EKK17rN-2">
          <mxGeometry width="50" height="50" relative="1" as="geometry">
            <mxPoint x="190" y="440" as="sourcePoint" />
            <mxPoint x="240" y="390" as="targetPoint" />
            <Array as="points">
              <mxPoint x="100" y="295" />
            </Array>
          </mxGeometry>
        </mxCell>
        <mxCell id="D2uSXx4SEqzR9EKK17rN-11" value="" style="endArrow=classic;html=1;rounded=0;exitX=0;exitY=0.5;exitDx=0;exitDy=0;exitPerimeter=0;entryX=0;entryY=0.5;entryDx=0;entryDy=0;" edge="1" parent="WIyWlLk6GJQsqaUBKTNV-1" source="D2uSXx4SEqzR9EKK17rN-3" target="D2uSXx4SEqzR9EKK17rN-2">
          <mxGeometry width="50" height="50" relative="1" as="geometry">
            <mxPoint x="160" y="500" as="sourcePoint" />
            <mxPoint x="210" y="450" as="targetPoint" />
            <Array as="points">
              <mxPoint x="20" y="530" />
              <mxPoint x="20" y="390" />
            </Array>
          </mxGeometry>
        </mxCell>
        <mxCell id="D2uSXx4SEqzR9EKK17rN-12" value="no" style="edgeLabel;html=1;align=center;verticalAlign=middle;resizable=0;points=[];" vertex="1" connectable="0" parent="D2uSXx4SEqzR9EKK17rN-11">
          <mxGeometry x="-0.53" y="-5" relative="1" as="geometry">
            <mxPoint x="5" y="7" as="offset" />
          </mxGeometry>
        </mxCell>
        <mxCell id="D2uSXx4SEqzR9EKK17rN-13" value="login successfully" style="rounded=1;whiteSpace=wrap;html=1;absoluteArcSize=1;arcSize=14;strokeWidth=2;" vertex="1" parent="WIyWlLk6GJQsqaUBKTNV-1">
          <mxGeometry x="35" y="610" width="130" height="40" as="geometry" />
        </mxCell>
        <mxCell id="D2uSXx4SEqzR9EKK17rN-15" value="yes" style="text;html=1;align=center;verticalAlign=middle;resizable=0;points=[];autosize=1;strokeColor=none;fillColor=none;" vertex="1" parent="WIyWlLk6GJQsqaUBKTNV-1">
          <mxGeometry x="100" y="570" width="40" height="30" as="geometry" />
        </mxCell>
        <mxCell id="D2uSXx4SEqzR9EKK17rN-16" value="enter first name, last name, email address, and password" style="rounded=1;whiteSpace=wrap;html=1;absoluteArcSize=1;arcSize=14;strokeWidth=2;" vertex="1" parent="WIyWlLk6GJQsqaUBKTNV-1">
          <mxGeometry x="300" y="340" width="100" height="90" as="geometry" />
        </mxCell>
        <mxCell id="D2uSXx4SEqzR9EKK17rN-17" value="" style="endArrow=classic;html=1;rounded=0;exitX=1;exitY=0.5;exitDx=0;exitDy=0;exitPerimeter=0;entryX=0.5;entryY=0;entryDx=0;entryDy=0;" edge="1" parent="WIyWlLk6GJQsqaUBKTNV-1" source="D2uSXx4SEqzR9EKK17rN-1" target="D2uSXx4SEqzR9EKK17rN-16">
          <mxGeometry width="50" height="50" relative="1" as="geometry">
            <mxPoint x="200" y="370" as="sourcePoint" />
            <mxPoint x="250" y="320" as="targetPoint" />
            <Array as="points">
              <mxPoint x="350" y="295" />
            </Array>
          </mxGeometry>
        </mxCell>
        <mxCell id="D2uSXx4SEqzR9EKK17rN-18" value="Warwick account" style="text;html=1;align=center;verticalAlign=middle;resizable=0;points=[];autosize=1;strokeColor=none;fillColor=none;" vertex="1" parent="WIyWlLk6GJQsqaUBKTNV-1">
          <mxGeometry x="65" y="268" width="110" height="30" as="geometry" />
        </mxCell>
        <mxCell id="D2uSXx4SEqzR9EKK17rN-19" value="guest" style="text;html=1;align=center;verticalAlign=middle;resizable=0;points=[];autosize=1;strokeColor=none;fillColor=none;" vertex="1" parent="WIyWlLk6GJQsqaUBKTNV-1">
          <mxGeometry x="275" y="268" width="50" height="30" as="geometry" />
        </mxCell>
        <mxCell id="D2uSXx4SEqzR9EKK17rN-20" value="" style="edgeStyle=orthogonalEdgeStyle;rounded=0;orthogonalLoop=1;jettySize=auto;html=1;" edge="1" parent="WIyWlLk6GJQsqaUBKTNV-1" target="D2uSXx4SEqzR9EKK17rN-22">
          <mxGeometry relative="1" as="geometry">
            <mxPoint x="350" y="430" as="sourcePoint" />
          </mxGeometry>
        </mxCell>
        <mxCell id="D2uSXx4SEqzR9EKK17rN-22" value="account&lt;br&gt;exist?" style="strokeWidth=2;html=1;shape=mxgraph.flowchart.decision;whiteSpace=wrap;" vertex="1" parent="WIyWlLk6GJQsqaUBKTNV-1">
          <mxGeometry x="300" y="470" width="100" height="100" as="geometry" />
        </mxCell>
        <mxCell id="D2uSXx4SEqzR9EKK17rN-24" value="" style="endArrow=classic;html=1;rounded=0;exitX=0;exitY=0.5;exitDx=0;exitDy=0;exitPerimeter=0;" edge="1" parent="WIyWlLk6GJQsqaUBKTNV-1" source="D2uSXx4SEqzR9EKK17rN-22">
          <mxGeometry width="50" height="50" relative="1" as="geometry">
            <mxPoint x="230" y="550" as="sourcePoint" />
            <mxPoint x="280" y="600" as="targetPoint" />
            <Array as="points">
              <mxPoint x="280" y="520" />
            </Array>
          </mxGeometry>
        </mxCell>
        <mxCell id="D2uSXx4SEqzR9EKK17rN-25" value="yes" style="text;html=1;align=center;verticalAlign=middle;resizable=0;points=[];autosize=1;strokeColor=none;fillColor=none;" vertex="1" parent="WIyWlLk6GJQsqaUBKTNV-1">
          <mxGeometry x="270" y="490" width="40" height="30" as="geometry" />
        </mxCell>
        <mxCell id="D2uSXx4SEqzR9EKK17rN-26" value="login successfully" style="rounded=1;whiteSpace=wrap;html=1;absoluteArcSize=1;arcSize=14;strokeWidth=2;" vertex="1" parent="WIyWlLk6GJQsqaUBKTNV-1">
          <mxGeometry x="220" y="600" width="130" height="40" as="geometry" />
        </mxCell>
        <mxCell id="D2uSXx4SEqzR9EKK17rN-27" value="" style="endArrow=classic;html=1;rounded=0;exitX=1;exitY=0.5;exitDx=0;exitDy=0;exitPerimeter=0;entryX=0.5;entryY=0;entryDx=0;entryDy=0;" edge="1" parent="WIyWlLk6GJQsqaUBKTNV-1" source="D2uSXx4SEqzR9EKK17rN-22" target="D2uSXx4SEqzR9EKK17rN-29">
          <mxGeometry width="50" height="50" relative="1" as="geometry">
            <mxPoint x="320" y="550" as="sourcePoint" />
            <mxPoint x="440" y="600" as="targetPoint" />
            <Array as="points">
              <mxPoint x="435" y="520" />
            </Array>
          </mxGeometry>
        </mxCell>
        <mxCell id="D2uSXx4SEqzR9EKK17rN-28" value="no" style="text;html=1;align=center;verticalAlign=middle;resizable=0;points=[];autosize=1;strokeColor=none;fillColor=none;" vertex="1" parent="WIyWlLk6GJQsqaUBKTNV-1">
          <mxGeometry x="394" y="490" width="40" height="30" as="geometry" />
        </mxCell>
        <mxCell id="D2uSXx4SEqzR9EKK17rN-29" value="sign up and login" style="rounded=1;whiteSpace=wrap;html=1;absoluteArcSize=1;arcSize=14;strokeWidth=2;" vertex="1" parent="WIyWlLk6GJQsqaUBKTNV-1">
          <mxGeometry x="370" y="600" width="130" height="40" as="geometry" />
        </mxCell>
      </root>
    </mxGraphModel>
  </diagram>
</mxfile>
